<svg width="50" height="50" viewBox="0 0 50 50" fill="none" xmlns="http://www.w3.org/2000/svg">
<rect width="50" height="50" rx="25" fill="#DEC4CE"/>
<path d="M34.25 35H15.75C15.34 35 15 34.66 15 34.25C15 33.84 15.34 33.5 15.75 33.5H34.25C34.66 33.5 35 33.84 35 34.25C35 34.66 34.66 35 34.25 35Z" fill="#47393E"/>
<path opacity="0.4" d="M33.5899 26.7L26.3599 33.93C24.9399 35.35 22.6499 35.35 21.2399 33.94L16.6299 29.33L28.9899 16.97L33.5999 21.58C35.0099 22.99 35.0099 25.28 33.5899 26.7Z" fill="#47393E"/>
<path d="M28.9896 16.97L16.6196 29.33L15.7096 28.42C14.2996 27.01 14.2996 24.72 15.7196 23.3L22.9496 16.07C24.3696 14.65 26.6596 14.65 28.0696 16.06L28.9896 16.97Z" fill="#47393E"/>
<path d="M25.8903 30.6L24.5403 31.95C24.2603 32.23 23.8103 32.23 23.5303 31.95C23.2503 31.67 23.2503 31.22 23.5303 30.94L24.8803 29.59C25.1603 29.31 25.6103 29.31 25.8903 29.59C26.1703 29.87 26.1703 30.32 25.8903 30.6Z" fill="#47393E"/>
<path d="M30.2704 26.22L27.5804 28.91C27.3004 29.19 26.8504 29.19 26.5704 28.91C26.2904 28.63 26.2904 28.18 26.5704 27.9L29.2604 25.21C29.5404 24.93 29.9904 24.93 30.2704 25.21C30.5404 25.49 30.5404 25.94 30.2704 26.22Z" fill="#47393E"/>
</svg>
