<svg width="50" height="50" viewBox="0 0 50 50" fill="none" xmlns="http://www.w3.org/2000/svg">
<rect width="50" height="50" rx="25" fill="url(#paint0_linear_197_3787)"/>
<path d="M34.25 35H15.75C15.34 35 15 34.66 15 34.25C15 33.84 15.34 33.5 15.75 33.5H34.25C34.66 33.5 35 33.84 35 34.25C35 34.66 34.66 35 34.25 35Z" fill="white"/>
<path opacity="0.4" d="M33.5909 26.7L26.3609 33.93C24.9409 35.35 22.6509 35.35 21.2409 33.94L16.6309 29.33L28.9909 16.97L33.6009 21.58C35.0109 22.99 35.0109 25.28 33.5909 26.7Z" fill="white"/>
<path d="M28.9906 16.97L16.6206 29.33L15.7106 28.42C14.3006 27.01 14.3006 24.72 15.7206 23.3L22.9506 16.07C24.3706 14.65 26.6606 14.65 28.0705 16.06L28.9906 16.97Z" fill="white"/>
<path d="M25.8903 30.6L24.5403 31.95C24.2603 32.23 23.8103 32.23 23.5303 31.95C23.2503 31.67 23.2503 31.22 23.5303 30.94L24.8803 29.59C25.1603 29.31 25.6103 29.31 25.8903 29.59C26.1703 29.87 26.1703 30.32 25.8903 30.6Z" fill="white"/>
<path d="M30.2694 26.22L27.5794 28.91C27.2994 29.19 26.8494 29.19 26.5694 28.91C26.2894 28.63 26.2894 28.18 26.5694 27.9L29.2594 25.21C29.5394 24.93 29.9894 24.93 30.2694 25.21C30.5394 25.49 30.5394 25.94 30.2694 26.22Z" fill="white"/>
<defs>
<linearGradient id="paint0_linear_197_3787" x1="1.00482" y1="32.4305" x2="49.2056" y2="32.3206" gradientUnits="userSpaceOnUse">
<stop stop-color="#F17CAF"/>
<stop offset="1" stop-color="#E7075B"/>
</linearGradient>
</defs>
</svg>
