<svg width="50" height="50" viewBox="0 0 50 50" fill="none" xmlns="http://www.w3.org/2000/svg">
<rect width="50" height="50" rx="25" fill="#DEC4CE"/>
<path opacity="0.4" d="M34.9897 19.02C35.0097 19.26 34.9897 19.5099 34.9297 19.7599L31.5597 33.2899C31.3197 34.2999 30.4198 34.9999 29.3798 34.9999H16.2397C14.7297 34.9999 13.6598 33.5199 14.0998 32.0699L18.3097 18.5399C18.5997 17.5999 19.4698 16.96 20.4498 16.96H32.7498C33.7097 16.96 34.4898 17.53 34.8198 18.33C34.9198 18.54 34.9697 18.78 34.9897 19.02Z" fill="#47393E"/>
<path d="M35.9899 32.62C36.0899 33.91 35.0699 35 33.7799 35H29.3799C30.4199 35 31.3199 34.3 31.5599 33.29L34.9299 19.76C34.9899 19.51 35.0099 19.26 34.9899 19.02L34.9999 19L35.9899 32.62Z" fill="#47393E"/>
<path d="M22.6798 20.13C22.6198 20.13 22.5598 20.12 22.4998 20.11C22.0998 20.01 21.8498 19.61 21.9498 19.2L22.9898 14.88C23.0898 14.48 23.4898 14.24 23.8998 14.33C24.2998 14.43 24.5498 14.83 24.4498 15.24L23.4098 19.56C23.3298 19.9 23.0198 20.13 22.6798 20.13Z" fill="#47393E"/>
<path d="M29.3804 20.14C29.3304 20.14 29.2704 20.14 29.2204 20.12C28.8204 20.03 28.5604 19.63 28.6404 19.23L29.5804 14.89C29.6704 14.48 30.0704 14.23 30.4704 14.31C30.8704 14.4 31.1304 14.8 31.0504 15.2L30.1104 19.54C30.0404 19.9 29.7304 20.14 29.3804 20.14Z" fill="#47393E"/>
<path d="M28.7002 25.75H20.7002C20.2902 25.75 19.9502 25.41 19.9502 25C19.9502 24.59 20.2902 24.25 20.7002 24.25H28.7002C29.1102 24.25 29.4502 24.59 29.4502 25C29.4502 25.41 29.1102 25.75 28.7002 25.75Z" fill="#47393E"/>
<path d="M27.7002 29.75H19.7002C19.2902 29.75 18.9502 29.41 18.9502 29C18.9502 28.59 19.2902 28.25 19.7002 28.25H27.7002C28.1102 28.25 28.4502 28.59 28.4502 29C28.4502 29.41 28.1102 29.75 27.7002 29.75Z" fill="#47393E"/>
</svg>
