<svg width="50" height="50" viewBox="0 0 50 50" fill="none" xmlns="http://www.w3.org/2000/svg">
<rect width="50" height="50" rx="25" fill="url(#paint0_linear_197_3774)"/>
<path opacity="0.4" d="M34.9897 19.02C35.0097 19.26 34.9897 19.5099 34.9297 19.7599L31.5597 33.2899C31.3197 34.2999 30.4198 34.9999 29.3798 34.9999H16.2397C14.7297 34.9999 13.6598 33.5199 14.0998 32.0699L18.3097 18.5399C18.5997 17.5999 19.4698 16.96 20.4498 16.96H32.7498C33.7098 16.96 34.4898 17.53 34.8198 18.33C34.9198 18.54 34.9697 18.78 34.9897 19.02Z" fill="white"/>
<path d="M35.9908 32.62C36.0908 33.91 35.0709 35 33.7809 35H29.3809C30.4209 35 31.3209 34.3 31.5609 33.29L34.9308 19.76C34.9908 19.51 35.0108 19.26 34.9908 19.02L35.0009 19L35.9908 32.62Z" fill="white"/>
<path d="M22.6798 20.13C22.6198 20.13 22.5598 20.12 22.4998 20.11C22.0998 20.01 21.8498 19.61 21.9498 19.2L22.9898 14.88C23.0898 14.48 23.4898 14.24 23.8998 14.33C24.2998 14.43 24.5498 14.83 24.4498 15.24L23.4098 19.56C23.3298 19.9 23.0198 20.13 22.6798 20.13Z" fill="white"/>
<path d="M29.3795 20.14C29.3295 20.14 29.2694 20.14 29.2194 20.12C28.8194 20.03 28.5595 19.63 28.6395 19.23L29.5794 14.89C29.6694 14.48 30.0694 14.23 30.4694 14.31C30.8694 14.4 31.1294 14.8 31.0494 15.2L30.1094 19.54C30.0394 19.9 29.7295 20.14 29.3795 20.14Z" fill="white"/>
<path d="M28.6992 25.75H20.6992C20.2892 25.75 19.9492 25.41 19.9492 25C19.9492 24.59 20.2892 24.25 20.6992 24.25H28.6992C29.1092 24.25 29.4492 24.59 29.4492 25C29.4492 25.41 29.1092 25.75 28.6992 25.75Z" fill="white"/>
<path d="M27.6992 29.75H19.6992C19.2892 29.75 18.9492 29.41 18.9492 29C18.9492 28.59 19.2892 28.25 19.6992 28.25H27.6992C28.1092 28.25 28.4492 28.59 28.4492 29C28.4492 29.41 28.1092 29.75 27.6992 29.75Z" fill="white"/>
<defs>
<linearGradient id="paint0_linear_197_3774" x1="1.00482" y1="32.4305" x2="49.2056" y2="32.3206" gradientUnits="userSpaceOnUse">
<stop stop-color="#F17CAF"/>
<stop offset="1" stop-color="#E7075B"/>
</linearGradient>
</defs>
</svg>
