<svg width="50" height="50" viewBox="0 0 50 50" fill="none" xmlns="http://www.w3.org/2000/svg">
<rect width="50" height="50" rx="25" fill="#DEC4CE"/>
<path d="M34 18.25H27C26.59 18.25 26.25 17.91 26.25 17.5C26.25 17.09 26.59 16.75 27 16.75H34C34.41 16.75 34.75 17.09 34.75 17.5C34.75 17.91 34.41 18.25 34 18.25Z" fill="#47393E"/>
<path opacity="0.4" d="M34 23.25H27C26.59 23.25 26.25 22.91 26.25 22.5C26.25 22.09 26.59 21.75 27 21.75H34C34.41 21.75 34.75 22.09 34.75 22.5C34.75 22.91 34.41 23.25 34 23.25Z" fill="#47393E"/>
<path d="M34 28.25H16C15.59 28.25 15.25 27.91 15.25 27.5C15.25 27.09 15.59 26.75 16 26.75H34C34.41 26.75 34.75 27.09 34.75 27.5C34.75 27.91 34.41 28.25 34 28.25Z" fill="#47393E"/>
<path opacity="0.4" d="M34 33.25H16C15.59 33.25 15.25 32.91 15.25 32.5C15.25 32.09 15.59 31.75 16 31.75H34C34.41 31.75 34.75 32.09 34.75 32.5C34.75 32.91 34.41 33.25 34 33.25Z" fill="#47393E"/>
<path opacity="0.4" d="M20.92 16.5H18.08C16.68 16.5 16 17.18 16 18.58V21.43C16 22.83 16.68 23.51 18.08 23.51H20.93C22.33 23.51 23.01 22.83 23.01 21.43V18.58C23 17.18 22.32 16.5 20.92 16.5Z" fill="#47393E"/>
</svg>
